<?xml version="1.0" encoding="us-ascii" standalone="no"?><svg xmlns="http://www.w3.org/2000/svg" xmlns:xlink="http://www.w3.org/1999/xlink" contentStyleType="text/css" height="677.0833px" preserveAspectRatio="none" style="width:1026px;height:677px;" version="1.1" viewBox="0 0 1026 677" width="1026.0417px" zoomAndPan="magnify"><defs><filter height="300%" id="fn6k0u0fu1122" width="300%" x="-1" y="-1"><feGaussianBlur result="blurOut" stdDeviation="2.0833333333333335"/><feColorMatrix in="blurOut" result="blurOut2" type="matrix" values="0 0 0 0 0 0 0 0 0 0 0 0 0 0 0 0 0 0 .4 0"/><feOffset dx="4.166666666666667" dy="4.166666666666667" in="blurOut2" result="blurOut3"/><feBlend in="SourceGraphic" in2="blurOut3" mode="normal"/></filter></defs><g><rect fill="none" height="58.6528" id="_title" rx="4.1667" ry="4.1667" style="stroke:#CCCCCC;stroke-width:1.0416666666666667;" width="307.2917" x="360.4167" y="20.8333"/><text fill="#2196F3" font-family="Verdana" font-size="20.8333" font-weight="bold" lengthAdjust="spacing" textLength="273.9583" x="377.0833" y="58.4452">Diagrama de Sequ&#234;ncia</text><line style="stroke:#CCCCCC;stroke-width:1.0416666666666667;stroke-dasharray:5.0,5.0;" x1="115.625" x2="115.625" y1="193.6361" y2="568.7276"/><line style="stroke:#CCCCCC;stroke-width:1.0416666666666667;stroke-dasharray:5.0,5.0;" x1="253.125" x2="253.125" y1="193.6361" y2="568.7276"/><line style="stroke:#CCCCCC;stroke-width:1.0416666666666667;stroke-dasharray:5.0,5.0;" x1="333.3333" x2="333.3333" y1="193.6361" y2="568.7276"/><line style="stroke:#CCCCCC;stroke-width:1.0416666666666667;stroke-dasharray:5.0,5.0;" x1="429.1667" x2="429.1667" y1="193.6361" y2="568.7276"/><line style="stroke:#CCCCCC;stroke-width:1.0416666666666667;stroke-dasharray:5.0,5.0;" x1="523.9583" x2="523.9583" y1="193.6361" y2="568.7276"/><line style="stroke:#CCCCCC;stroke-width:1.0416666666666667;stroke-dasharray:5.0,5.0;" x1="639.5833" x2="639.5833" y1="193.6361" y2="568.7276"/><line style="stroke:#CCCCCC;stroke-width:1.0416666666666667;stroke-dasharray:5.0,5.0;" x1="806.25" x2="806.25" y1="193.6361" y2="568.7276"/><line style="stroke:#CCCCCC;stroke-width:1.0416666666666667;stroke-dasharray:5.0,5.0;" x1="961.4583" x2="961.4583" y1="193.6361" y2="568.7276"/><rect fill="none" filter="url(#fn6k0u0fu1122)" height="50.6083" rx="4.1667" ry="4.1667" style="stroke:#2196F3;stroke-width:1.0416666666666667;" width="113.5417" x="57.2917" y="138.8611"/><text fill="#2196F3" font-family="Verdana" font-size="12.5" lengthAdjust="spacing" textLength="78.125" x="75" y="169.1366">Participante</text><rect fill="none" filter="url(#fn6k0u0fu1122)" height="50.6083" rx="4.1667" ry="4.1667" style="stroke:#2196F3;stroke-width:1.0416666666666667;" width="113.5417" x="57.2917" y="567.686"/><text fill="#2196F3" font-family="Verdana" font-size="12.5" lengthAdjust="spacing" textLength="78.125" x="75" y="597.9614">Participante</text><text fill="#2196F3" font-family="Verdana" font-size="12.5" lengthAdjust="spacing" textLength="27.0833" x="236.4583" y="180.5949">Ator</text><ellipse cx="253.125" cy="100.3194" fill="none" filter="url(#fn6k0u0fu1122)" rx="8.3333" ry="8.3333" style="stroke:#2196F3;stroke-width:1.0416666666666667;"/><path d="M253.125,108.6528 L253.125,136.7778 M239.5833,116.9861 L266.6667,116.9861 M253.125,136.7778 L239.5833,152.4028 M253.125,136.7778 L266.6667,152.4028 " fill="none" filter="url(#fn6k0u0fu1122)" style="stroke:#2196F3;stroke-width:1.0416666666666667;"/><text fill="#2196F3" font-family="Verdana" font-size="12.5" lengthAdjust="spacing" textLength="27.0833" x="236.4583" y="590.6698">Ator</text><ellipse cx="253.125" cy="613.0859" fill="none" filter="url(#fn6k0u0fu1122)" rx="8.3333" ry="8.3333" style="stroke:#2196F3;stroke-width:1.0416666666666667;"/><path d="M253.125,621.4193 L253.125,649.5443 M239.5833,629.7526 L266.6667,629.7526 M253.125,649.5443 L239.5833,665.1693 M253.125,649.5443 L266.6667,665.1693 " fill="none" filter="url(#fn6k0u0fu1122)" style="stroke:#2196F3;stroke-width:1.0416666666666667;"/><text fill="#2196F3" font-family="Verdana" font-size="12.5" lengthAdjust="spacing" textLength="59.375" x="301.0417" y="180.5949">Fronteira</text><path d="M312.5,128.4444 L312.5,153.4444 M312.5,140.9444 L330.2083,140.9444 " fill="none" filter="url(#fn6k0u0fu1122)" style="stroke:#2196F3;stroke-width:1.0416666666666667;"/><ellipse cx="342.7083" cy="140.9444" fill="none" filter="url(#fn6k0u0fu1122)" rx="12.5" ry="12.5" style="stroke:#2196F3;stroke-width:1.0416666666666667;"/><text fill="#2196F3" font-family="Verdana" font-size="12.5" lengthAdjust="spacing" textLength="59.375" x="301.0417" y="590.6698">Fronteira</text><path d="M312.5,607.8776 L312.5,632.8776 M312.5,620.3776 L330.2083,620.3776 " fill="none" filter="url(#fn6k0u0fu1122)" style="stroke:#2196F3;stroke-width:1.0416666666666667;"/><ellipse cx="342.7083" cy="620.3776" fill="none" filter="url(#fn6k0u0fu1122)" rx="12.5" ry="12.5" style="stroke:#2196F3;stroke-width:1.0416666666666667;"/><text fill="#2196F3" font-family="Verdana" font-size="12.5" lengthAdjust="spacing" textLength="56.25" x="397.9167" y="180.5949">Controle</text><ellipse cx="429.1667" cy="140.9444" fill="none" filter="url(#fn6k0u0fu1122)" rx="12.5" ry="12.5" style="stroke:#2196F3;stroke-width:1.0416666666666667;"/><polygon fill="#2196F3" points="425,128.4444,431.25,123.2361,429.1667,128.4444,431.25,133.6528,425,128.4444" style="stroke:#2196F3;stroke-width:1.0416666666666667;"/><text fill="#2196F3" font-family="Verdana" font-size="12.5" lengthAdjust="spacing" textLength="56.25" x="397.9167" y="590.6698">Controle</text><ellipse cx="429.1667" cy="620.3776" fill="none" filter="url(#fn6k0u0fu1122)" rx="12.5" ry="12.5" style="stroke:#2196F3;stroke-width:1.0416666666666667;"/><polygon fill="#2196F3" points="425,607.8776,431.25,602.6693,429.1667,607.8776,431.25,613.0859,425,607.8776" style="stroke:#2196F3;stroke-width:1.0416666666666667;"/><text fill="#2196F3" font-family="Verdana" font-size="12.5" lengthAdjust="spacing" textLength="58.3333" x="491.6667" y="180.5949">Entidade</text><ellipse cx="523.9583" cy="140.9444" fill="none" filter="url(#fn6k0u0fu1122)" rx="12.5" ry="12.5" style="stroke:#2196F3;stroke-width:1.0416666666666667;"/><line style="stroke:#2196F3;stroke-width:1.0416666666666667;" x1="511.4583" x2="536.4583" y1="155.5278" y2="155.5278"/><text fill="#2196F3" font-family="Verdana" font-size="12.5" lengthAdjust="spacing" textLength="58.3333" x="491.6667" y="590.6698">Entidade</text><ellipse cx="523.9583" cy="620.3776" fill="none" filter="url(#fn6k0u0fu1122)" rx="12.5" ry="12.5" style="stroke:#2196F3;stroke-width:1.0416666666666667;"/><line style="stroke:#2196F3;stroke-width:1.0416666666666667;" x1="511.4583" x2="536.4583" y1="634.9609" y2="634.9609"/><text fill="#2196F3" font-family="Verdana" font-size="12.5" lengthAdjust="spacing" textLength="98.9583" x="587.5" y="180.5949">BancoDeDados</text><path d="M621.3542,120.1111 C621.3542,109.6944 640.1042,109.6944 640.1042,109.6944 C640.1042,109.6944 658.8542,109.6944 658.8542,120.1111 L658.8542,147.1944 C658.8542,157.6111 640.1042,157.6111 640.1042,157.6111 C640.1042,157.6111 621.3542,157.6111 621.3542,147.1944 L621.3542,120.1111 " fill="none" filter="url(#fn6k0u0fu1122)" style="stroke:#2196F3;stroke-width:1.5625;"/><path d="M621.3542,120.1111 C621.3542,130.5278 640.1042,130.5278 640.1042,130.5278 C640.1042,130.5278 658.8542,130.5278 658.8542,120.1111 " fill="none" style="stroke:#2196F3;stroke-width:1.5625;"/><text fill="#2196F3" font-family="Verdana" font-size="12.5" lengthAdjust="spacing" textLength="98.9583" x="587.5" y="590.6698">BancoDeDados</text><path d="M621.3542,614.1276 C621.3542,603.7109 640.1042,603.7109 640.1042,603.7109 C640.1042,603.7109 658.8542,603.7109 658.8542,614.1276 L658.8542,641.2109 C658.8542,651.6276 640.1042,651.6276 640.1042,651.6276 C640.1042,651.6276 621.3542,651.6276 621.3542,641.2109 L621.3542,614.1276 " fill="none" filter="url(#fn6k0u0fu1122)" style="stroke:#2196F3;stroke-width:1.5625;"/><path d="M621.3542,614.1276 C621.3542,624.5443 640.1042,624.5443 640.1042,624.5443 C640.1042,624.5443 658.8542,624.5443 658.8542,614.1276 " fill="none" style="stroke:#2196F3;stroke-width:1.5625;"/><rect fill="none" filter="url(#fn6k0u0fu1122)" height="50.6083" rx="4.1667" ry="4.1667" style="stroke:#2196F3;stroke-width:1.0416666666666667;" width="94.7917" x="759.375" y="134.6944"/><rect fill="none" filter="url(#fn6k0u0fu1122)" height="50.6083" rx="4.1667" ry="4.1667" style="stroke:#2196F3;stroke-width:1.0416666666666667;" width="94.7917" x="755.2083" y="138.8611"/><text fill="#2196F3" font-family="Verdana" font-size="12.5" lengthAdjust="spacing" textLength="59.375" x="772.9167" y="169.1366">Cole&#231;&#245;es</text><rect fill="none" filter="url(#fn6k0u0fu1122)" height="50.6083" rx="4.1667" ry="4.1667" style="stroke:#2196F3;stroke-width:1.0416666666666667;" width="94.7917" x="759.375" y="567.686"/><rect fill="none" filter="url(#fn6k0u0fu1122)" height="50.6083" rx="4.1667" ry="4.1667" style="stroke:#2196F3;stroke-width:1.0416666666666667;" width="94.7917" x="755.2083" y="571.8526"/><text fill="#2196F3" font-family="Verdana" font-size="12.5" lengthAdjust="spacing" textLength="59.375" x="772.9167" y="602.1281">Cole&#231;&#245;es</text><path d="M914.5833,147.1944 L1008.3333,147.1944 C1013.5417,147.1944 1013.5417,170.4152 1013.5417,170.4152 C1013.5417,170.4152 1013.5417,193.6361 1008.3333,193.6361 L914.5833,193.6361 C909.375,193.6361 909.375,170.4152 909.375,170.4152 C909.375,170.4152 909.375,147.1944 914.5833,147.1944 " fill="none" filter="url(#fn6k0u0fu1122)" style="stroke:#2196F3;stroke-width:1.0416666666666667;"/><path d="M1008.3333,147.1944 C1003.125,147.1944 1003.125,170.4152 1003.125,170.4152 C1003.125,193.6361 1008.3333,193.6361 1008.3333,193.6361 " fill="none" style="stroke:#2196F3;stroke-width:1.0416666666666667;"/><text fill="#2196F3" font-family="Verdana" font-size="12.5" lengthAdjust="spacing" textLength="62.5" x="925" y="175.3866">RabbitMQ</text><path d="M914.5833,567.686 L1008.3333,567.686 C1013.5417,567.686 1013.5417,590.9068 1013.5417,590.9068 C1013.5417,590.9068 1013.5417,614.1276 1008.3333,614.1276 L914.5833,614.1276 C909.375,614.1276 909.375,590.9068 909.375,590.9068 C909.375,590.9068 909.375,567.686 914.5833,567.686 " fill="none" filter="url(#fn6k0u0fu1122)" style="stroke:#2196F3;stroke-width:1.0416666666666667;"/><path d="M1008.3333,567.686 C1003.125,567.686 1003.125,590.9068 1003.125,590.9068 C1003.125,614.1276 1008.3333,614.1276 1008.3333,614.1276 " fill="none" style="stroke:#2196F3;stroke-width:1.0416666666666667;"/><text fill="#2196F3" font-family="Verdana" font-size="12.5" lengthAdjust="spacing" textLength="62.5" x="925" y="595.8781">RabbitMQ</text><polygon fill="#2196F3" points="240.625,242.1611,251.0417,246.3277,240.625,250.4944,244.7917,246.3277" style="stroke:#2196F3;stroke-width:1.0416666666666667;"/><line style="stroke:#2196F3;stroke-width:3.125;" x1="115.625" x2="246.875" y1="246.3277" y2="246.3277"/><text fill="#222222" font-family="Verdana" font-size="12.5" lengthAdjust="spacing" textLength="61.4583" x="133.3333" y="231.2032">Para ator</text><polygon fill="#2196F3" points="321.3542,292.7694,331.7708,296.936,321.3542,301.1027,325.5208,296.936" style="stroke:#2196F3;stroke-width:1.0416666666666667;"/><line style="stroke:#2196F3;stroke-width:3.125;" x1="115.625" x2="327.6042" y1="296.936" y2="296.936"/><text fill="#222222" font-family="Verdana" font-size="12.5" lengthAdjust="spacing" textLength="90.625" x="133.3333" y="281.8115">Para fronteira</text><polygon fill="#2196F3" points="416.6667,343.3777,427.0833,347.5444,416.6667,351.711,420.8333,347.5444" style="stroke:#2196F3;stroke-width:1.0416666666666667;"/><line style="stroke:#2196F3;stroke-width:3.125;" x1="115.625" x2="422.9167" y1="347.5444" y2="347.5444"/><text fill="#222222" font-family="Verdana" font-size="12.5" lengthAdjust="spacing" textLength="87.5" x="133.3333" y="332.4198">Para controle</text><polygon fill="#2196F3" points="511.4583,393.986,521.875,398.1527,511.4583,402.3193,515.625,398.1527" style="stroke:#2196F3;stroke-width:1.0416666666666667;"/><line style="stroke:#2196F3;stroke-width:3.125;" x1="115.625" x2="517.7083" y1="398.1527" y2="398.1527"/><text fill="#222222" font-family="Verdana" font-size="12.5" lengthAdjust="spacing" textLength="92.7083" x="133.3333" y="383.0282">Para entidade</text><polygon fill="#2196F3" points="627.6042,444.5943,638.0208,448.761,627.6042,452.9277,631.7708,448.761" style="stroke:#2196F3;stroke-width:1.0416666666666667;"/><line style="stroke:#2196F3;stroke-width:3.125;" x1="115.625" x2="633.8542" y1="448.761" y2="448.761"/><text fill="#222222" font-family="Verdana" font-size="12.5" lengthAdjust="spacing" textLength="139.5833" x="133.3333" y="433.6365">Para banco de dados</text><polygon fill="#2196F3" points="793.75,495.2026,804.1667,499.3693,793.75,503.536,797.9167,499.3693" style="stroke:#2196F3;stroke-width:1.0416666666666667;"/><line style="stroke:#2196F3;stroke-width:3.125;" x1="115.625" x2="800" y1="499.3693" y2="499.3693"/><text fill="#222222" font-family="Verdana" font-size="12.5" lengthAdjust="spacing" textLength="90.625" x="133.3333" y="484.2448">Para cole&#231;&#245;es</text><polygon fill="#2196F3" points="948.9583,545.811,959.375,549.9776,948.9583,554.1443,953.125,549.9776" style="stroke:#2196F3;stroke-width:1.0416666666666667;"/><line style="stroke:#2196F3;stroke-width:3.125;" x1="115.625" x2="955.2083" y1="549.9776" y2="549.9776"/><text fill="#222222" font-family="Verdana" font-size="12.5" lengthAdjust="spacing" textLength="53.125" x="133.3333" y="534.8531">Para fila</text><!--SRC=[LP5BRiGW343tdC8zm2mwNwcBIctJsLNgvmG6t8ub0ZF4MSo9AdNV4-HYXIGeb0Mo_8pDWnivKKlGeb1aN8LU77jImk886iQlY2s29VYWIp_yUCEepXY53P_H2xmkCG5sS0n1eP4GOLeFIpZHMwL3xot6QyuTOqW7EU9Ii5OcvM9muw6dAQQgmqQHJ_UxJbsVKspHKZrZgomAQkp6x2Dw4nfgq8PkgTcbCSwH4Gw-IsCS3T_3BtKptgjBJ_tS5TvHQvQNjtyc1vKsMDsFLd2Ndm81isy5rWLy5jCARWgSZQbYsy9e5gpOhZ2TrVBls2nNLUoNpaMieeTo9tRu1m00]--></g></svg>