<?xml version="1.0" encoding="us-ascii" standalone="no"?><svg xmlns="http://www.w3.org/2000/svg" xmlns:xlink="http://www.w3.org/1999/xlink" contentStyleType="text/css" height="435px" preserveAspectRatio="none" style="width:660px;height:435px;background:#FFFFFF;" version="1.1" viewBox="0 0 660 435" width="660px" zoomAndPan="magnify"><defs/><g><text fill="#000000" font-family="sans-serif" font-size="14" font-weight="bold" lengthAdjust="spacing" textLength="165" x="246.25" y="29.5332">Diagrama de Sequ&#234;ncia</text><line style="stroke:#181818;stroke-width:0.5;stroke-dasharray:5.0,5.0;" x1="49" x2="49" y1="121.2188" y2="353.6797"/><line style="stroke:#181818;stroke-width:0.5;stroke-dasharray:5.0,5.0;" x1="126.5" x2="126.5" y1="121.2188" y2="353.6797"/><line style="stroke:#181818;stroke-width:0.5;stroke-dasharray:5.0,5.0;" x1="184.5" x2="184.5" y1="121.2188" y2="353.6797"/><line style="stroke:#181818;stroke-width:0.5;stroke-dasharray:5.0,5.0;" x1="256.5" x2="256.5" y1="121.2188" y2="353.6797"/><line style="stroke:#181818;stroke-width:0.5;stroke-dasharray:5.0,5.0;" x1="327.5" x2="327.5" y1="121.2188" y2="353.6797"/><line style="stroke:#181818;stroke-width:0.5;stroke-dasharray:5.0,5.0;" x1="420.5" x2="420.5" y1="121.2188" y2="353.6797"/><line style="stroke:#181818;stroke-width:0.5;stroke-dasharray:5.0,5.0;" x1="521.5" x2="521.5" y1="121.2188" y2="353.6797"/><line style="stroke:#181818;stroke-width:0.5;stroke-dasharray:5.0,5.0;" x1="611.5" x2="611.5" y1="121.2188" y2="353.6797"/><rect fill="#E2E2F0" height="31.6094" rx="2.5" ry="2.5" style="stroke:#181818;stroke-width:0.5;" width="89" x="5" y="88.6094"/><text fill="#000000" font-family="sans-serif" font-size="14" lengthAdjust="spacing" textLength="75" x="12" y="110.1426">Participante</text><rect fill="#E2E2F0" height="31.6094" rx="2.5" ry="2.5" style="stroke:#181818;stroke-width:0.5;" width="89" x="5" y="352.6797"/><text fill="#000000" font-family="sans-serif" font-size="14" lengthAdjust="spacing" textLength="75" x="12" y="374.2129">Participante</text><text fill="#000000" font-family="sans-serif" font-size="14" lengthAdjust="spacing" textLength="26" x="110.5" y="118.1426">Ator</text><ellipse cx="126.5" cy="52.1094" fill="#E2E2F0" rx="8" ry="8" style="stroke:#181818;stroke-width:0.5;"/><path d="M126.5,60.1094 L126.5,87.1094 M113.5,68.1094 L139.5,68.1094 M126.5,87.1094 L113.5,102.1094 M126.5,87.1094 L139.5,102.1094 " fill="none" style="stroke:#181818;stroke-width:0.5;"/><text fill="#000000" font-family="sans-serif" font-size="14" lengthAdjust="spacing" textLength="26" x="110.5" y="367.2129">Ator</text><ellipse cx="126.5" cy="378.7891" fill="#E2E2F0" rx="8" ry="8" style="stroke:#181818;stroke-width:0.5;"/><path d="M126.5,386.7891 L126.5,413.7891 M113.5,394.7891 L139.5,394.7891 M126.5,413.7891 L113.5,428.7891 M126.5,413.7891 L139.5,428.7891 " fill="none" style="stroke:#181818;stroke-width:0.5;"/><text fill="#000000" font-family="sans-serif" font-size="14" lengthAdjust="spacing" textLength="58" x="152.5" y="118.1426">Fronteira</text><path d="M164,75.6094 L164,99.6094 M164,87.6094 L181,87.6094 " fill="none" style="stroke:#181818;stroke-width:0.5;"/><ellipse cx="193" cy="87.6094" fill="#E2E2F0" rx="12" ry="12" style="stroke:#181818;stroke-width:0.5;"/><text fill="#000000" font-family="sans-serif" font-size="14" lengthAdjust="spacing" textLength="58" x="152.5" y="367.2129">Fronteira</text><path d="M164,374.2891 L164,398.2891 M164,386.2891 L181,386.2891 " fill="none" style="stroke:#181818;stroke-width:0.5;"/><ellipse cx="193" cy="386.2891" fill="#E2E2F0" rx="12" ry="12" style="stroke:#181818;stroke-width:0.5;"/><text fill="#000000" font-family="sans-serif" font-size="14" lengthAdjust="spacing" textLength="54" x="226.5" y="118.1426">Controle</text><ellipse cx="256.5" cy="87.6094" fill="#E2E2F0" rx="12" ry="12" style="stroke:#181818;stroke-width:0.5;"/><polygon fill="#181818" points="252.5,75.6094,258.5,70.6094,256.5,75.6094,258.5,80.6094,252.5,75.6094" style="stroke:#181818;stroke-width:1.0;"/><text fill="#000000" font-family="sans-serif" font-size="14" lengthAdjust="spacing" textLength="54" x="226.5" y="367.2129">Controle</text><ellipse cx="256.5" cy="386.2891" fill="#E2E2F0" rx="12" ry="12" style="stroke:#181818;stroke-width:0.5;"/><polygon fill="#181818" points="252.5,374.2891,258.5,369.2891,256.5,374.2891,258.5,379.2891,252.5,374.2891" style="stroke:#181818;stroke-width:1.0;"/><text fill="#000000" font-family="sans-serif" font-size="14" lengthAdjust="spacing" textLength="56" x="296.5" y="118.1426">Entidade</text><ellipse cx="327.5" cy="87.6094" fill="#E2E2F0" rx="12" ry="12" style="stroke:#181818;stroke-width:0.5;"/><line style="stroke:#181818;stroke-width:0.5;" x1="315.5" x2="339.5" y1="101.6094" y2="101.6094"/><text fill="#000000" font-family="sans-serif" font-size="14" lengthAdjust="spacing" textLength="56" x="296.5" y="367.2129">Entidade</text><ellipse cx="327.5" cy="386.2891" fill="#E2E2F0" rx="12" ry="12" style="stroke:#181818;stroke-width:0.5;"/><line style="stroke:#181818;stroke-width:0.5;" x1="315.5" x2="339.5" y1="400.2891" y2="400.2891"/><text fill="#000000" font-family="sans-serif" font-size="14" lengthAdjust="spacing" textLength="99" x="368.5" y="118.1426">BancoDeDados</text><path d="M403,67.6094 C403,57.6094 421,57.6094 421,57.6094 C421,57.6094 439,57.6094 439,67.6094 L439,93.6094 C439,103.6094 421,103.6094 421,103.6094 C421,103.6094 403,103.6094 403,93.6094 L403,67.6094 " fill="#E2E2F0" style="stroke:#181818;stroke-width:1.5;"/><path d="M403,67.6094 C403,77.6094 421,77.6094 421,77.6094 C421,77.6094 439,77.6094 439,67.6094 " fill="none" style="stroke:#181818;stroke-width:1.5;"/><text fill="#000000" font-family="sans-serif" font-size="14" lengthAdjust="spacing" textLength="99" x="368.5" y="367.2129">BancoDeDados</text><path d="M403,380.2891 C403,370.2891 421,370.2891 421,370.2891 C421,370.2891 439,370.2891 439,380.2891 L439,406.2891 C439,416.2891 421,416.2891 421,416.2891 C421,416.2891 403,416.2891 403,406.2891 L403,380.2891 " fill="#E2E2F0" style="stroke:#181818;stroke-width:1.5;"/><path d="M403,380.2891 C403,390.2891 421,390.2891 421,390.2891 C421,390.2891 439,390.2891 439,380.2891 " fill="none" style="stroke:#181818;stroke-width:1.5;"/><rect fill="#E2E2F0" height="31.6094" style="stroke:#181818;stroke-width:0.5;" width="73" x="487.5" y="84.6094"/><rect fill="#E2E2F0" height="31.6094" style="stroke:#181818;stroke-width:0.5;" width="73" x="483.5" y="88.6094"/><text fill="#000000" font-family="sans-serif" font-size="14" lengthAdjust="spacing" textLength="59" x="490.5" y="110.1426">Cole&#231;&#245;es</text><rect fill="#E2E2F0" height="31.6094" style="stroke:#181818;stroke-width:0.5;" width="73" x="487.5" y="352.6797"/><rect fill="#E2E2F0" height="31.6094" style="stroke:#181818;stroke-width:0.5;" width="73" x="483.5" y="356.6797"/><text fill="#000000" font-family="sans-serif" font-size="14" lengthAdjust="spacing" textLength="59" x="490.5" y="378.2129">Cole&#231;&#245;es</text><path d="M575.5,93.6094 L648.5,93.6094 C653.5,93.6094 653.5,107.4141 653.5,107.4141 C653.5,107.4141 653.5,121.2188 648.5,121.2188 L575.5,121.2188 C570.5,121.2188 570.5,107.4141 570.5,107.4141 C570.5,107.4141 570.5,93.6094 575.5,93.6094 " fill="#E2E2F0" style="stroke:#181818;stroke-width:0.5;"/><path d="M648.5,93.6094 C643.5,93.6094 643.5,107.4141 643.5,107.4141 C643.5,121.2188 648.5,121.2188 648.5,121.2188 " fill="none" style="stroke:#181818;stroke-width:0.5;"/><text fill="#000000" font-family="sans-serif" font-size="14" lengthAdjust="spacing" textLength="63" x="575.5" y="113.1426">RabbitMQ</text><path d="M575.5,352.6797 L648.5,352.6797 C653.5,352.6797 653.5,366.4844 653.5,366.4844 C653.5,366.4844 653.5,380.2891 648.5,380.2891 L575.5,380.2891 C570.5,380.2891 570.5,366.4844 570.5,366.4844 C570.5,366.4844 570.5,352.6797 575.5,352.6797 " fill="#E2E2F0" style="stroke:#181818;stroke-width:0.5;"/><path d="M648.5,352.6797 C643.5,352.6797 643.5,366.4844 643.5,366.4844 C643.5,380.2891 648.5,380.2891 648.5,380.2891 " fill="none" style="stroke:#181818;stroke-width:0.5;"/><text fill="#000000" font-family="sans-serif" font-size="14" lengthAdjust="spacing" textLength="63" x="575.5" y="372.2129">RabbitMQ</text><polygon fill="#181818" points="114.5,149.5703,124.5,153.5703,114.5,157.5703,118.5,153.5703" style="stroke:#181818;stroke-width:1.0;"/><line style="stroke:#181818;stroke-width:1.0;" x1="49.5" x2="120.5" y1="153.5703" y2="153.5703"/><text fill="#000000" font-family="sans-serif" font-size="13" lengthAdjust="spacing" textLength="53" x="56.5" y="148.7139">Para ator</text><polygon fill="#181818" points="172.5,179.9219,182.5,183.9219,172.5,187.9219,176.5,183.9219" style="stroke:#181818;stroke-width:1.0;"/><line style="stroke:#181818;stroke-width:1.0;" x1="49.5" x2="178.5" y1="183.9219" y2="183.9219"/><text fill="#000000" font-family="sans-serif" font-size="13" lengthAdjust="spacing" textLength="77" x="56.5" y="179.0654">Para fronteira</text><polygon fill="#181818" points="244.5,210.2734,254.5,214.2734,244.5,218.2734,248.5,214.2734" style="stroke:#181818;stroke-width:1.0;"/><line style="stroke:#181818;stroke-width:1.0;" x1="49.5" x2="250.5" y1="214.2734" y2="214.2734"/><text fill="#000000" font-family="sans-serif" font-size="13" lengthAdjust="spacing" textLength="77" x="56.5" y="209.417">Para controle</text><polygon fill="#181818" points="315.5,240.625,325.5,244.625,315.5,248.625,319.5,244.625" style="stroke:#181818;stroke-width:1.0;"/><line style="stroke:#181818;stroke-width:1.0;" x1="49.5" x2="321.5" y1="244.625" y2="244.625"/><text fill="#000000" font-family="sans-serif" font-size="13" lengthAdjust="spacing" textLength="80" x="56.5" y="239.7686">Para entidade</text><polygon fill="#181818" points="409,270.9766,419,274.9766,409,278.9766,413,274.9766" style="stroke:#181818;stroke-width:1.0;"/><line style="stroke:#181818;stroke-width:1.0;" x1="49.5" x2="415" y1="274.9766" y2="274.9766"/><text fill="#000000" font-family="sans-serif" font-size="13" lengthAdjust="spacing" textLength="123" x="56.5" y="270.1201">Para banco de dados</text><polygon fill="#181818" points="510,301.3281,520,305.3281,510,309.3281,514,305.3281" style="stroke:#181818;stroke-width:1.0;"/><line style="stroke:#181818;stroke-width:1.0;" x1="49.5" x2="516" y1="305.3281" y2="305.3281"/><text fill="#000000" font-family="sans-serif" font-size="13" lengthAdjust="spacing" textLength="83" x="56.5" y="300.4717">Para cole&#231;&#245;es</text><polygon fill="#181818" points="600,331.6797,610,335.6797,600,339.6797,604,335.6797" style="stroke:#181818;stroke-width:1.0;"/><line style="stroke:#181818;stroke-width:1.0;" x1="49.5" x2="606" y1="335.6797" y2="335.6797"/><text fill="#000000" font-family="sans-serif" font-size="13" lengthAdjust="spacing" textLength="47" x="56.5" y="330.8232">Para fila</text><!--SRC=[LP7DJWGX383lF4LVmCF-9nvCr75l9gi-GGUgQSB2BdGE-qGctds2UJ5XPWZ8WJJzIii7mc89EiQlW6S4G_11rs7ySPfHNJ08QxwW4pZLc00Z7BrNgCK7cDTZ3MUwKhqVdC5moxbZyEaW1wm5QwLJBdWx7NgUOsewR1GvORdDNLzIRD1GEsEh30hs6AVi4phjE-hG-5XhTccCjQI5lOjfZANnU_obkE2zkWuqB5tX7VkUvVNjdyb1fGtk7YOhkCzFWO3Pjm7h0ZwBQGCt1Ix6rB1jORG8DcnNM9_Lyk-OBDTKx6ld8jRGGxaJM_m3]--></g></svg>