<?xml version="1.0" encoding="us-ascii" standalone="no"?><svg xmlns="http://www.w3.org/2000/svg" xmlns:xlink="http://www.w3.org/1999/xlink" contentStyleType="text/css" height="79.1667px" preserveAspectRatio="none" style="width:157px;height:79px;" version="1.1" viewBox="0 0 157 79" width="157.2917px" zoomAndPan="magnify"><defs/><g><text fill="#000000" font-family="sans-serif" font-size="12.5" lengthAdjust="spacing" textLength="32.2917" x="6.25" y="19.2261">Login</text><text fill="#000000" font-family="sans-serif" font-size="12.5" lengthAdjust="spacing" textLength="45.8333" x="87.5" y="19.2261">Usuario</text><line style="stroke:#000000;stroke-width:1.0416666666666667;" x1="85.4167" x2="146.875" y1="21.9727" y2="21.9727"/><line style="stroke:#000000;stroke-width:1.0416666666666667;" x1="85.4167" x2="85.4167" y1="18.8477" y2="20.931"/><line style="stroke:#000000;stroke-width:1.0416666666666667;" x1="146.875" x2="146.875" y1="18.8477" y2="20.931"/><text fill="#000000" font-family="sans-serif" font-size="12.5" lengthAdjust="spacing" textLength="37.5" x="6.25" y="39.1154">Senha</text><text fill="#000000" font-family="sans-serif" font-size="12.5" font-weight="bold" lengthAdjust="spacing" textLength="5.2083" x="87.5" y="39.1154">*</text><line style="stroke:#000000;stroke-width:1.0416666666666667;" x1="85.4167" x2="146.875" y1="41.862" y2="41.862"/><line style="stroke:#000000;stroke-width:1.0416666666666667;" x1="85.4167" x2="85.4167" y1="38.737" y2="40.8203"/><line style="stroke:#000000;stroke-width:1.0416666666666667;" x1="146.875" x2="146.875" y1="38.737" y2="40.8203"/><rect fill="#EEEEEE" height="19.8893" rx="5.2083" ry="5.2083" style="stroke:#000000;stroke-width:2.604166666666667;" width="70.8333" x="8.8542" y="48.6328"/><text fill="#000000" font-family="sans-serif" font-size="12.5" lengthAdjust="spacing" textLength="52.0833" x="18.2292" y="63.6922">Cancelar</text><rect fill="#EEEEEE" height="19.8893" rx="5.2083" ry="5.2083" style="stroke:#000000;stroke-width:2.604166666666667;" width="45.8333" x="86.9792" y="48.6328"/><text fill="#000000" font-family="sans-serif" font-size="12.5" lengthAdjust="spacing" textLength="32.2917" x="93.75" y="63.6922">Login</text><line style="stroke:#000000;stroke-width:1.0416666666666667;" x1="5.2083" x2="83.3333" y1="5.2083" y2="5.2083"/><line style="stroke:#000000;stroke-width:1.0416666666666667;" x1="83.3333" x2="150" y1="5.2083" y2="5.2083"/><line style="stroke:#000000;stroke-width:1.0416666666666667;" x1="5.2083" x2="83.3333" y1="72.168" y2="72.168"/><line style="stroke:#000000;stroke-width:1.0416666666666667;" x1="83.3333" x2="150" y1="72.168" y2="72.168"/><line style="stroke:#000000;stroke-width:1.0416666666666667;" x1="5.2083" x2="5.2083" y1="5.2083" y2="25.0977"/><line style="stroke:#000000;stroke-width:1.0416666666666667;" x1="150" x2="150" y1="44.987" y2="72.168"/><line style="stroke:#000000;stroke-width:1.0416666666666667;" x1="150" x2="150" y1="25.0977" y2="44.987"/><line style="stroke:#000000;stroke-width:1.0416666666666667;" x1="150" x2="150" y1="5.2083" y2="25.0977"/><line style="stroke:#000000;stroke-width:1.0416666666666667;" x1="5.2083" x2="5.2083" y1="44.987" y2="72.168"/><line style="stroke:#000000;stroke-width:1.0416666666666667;" x1="5.2083" x2="5.2083" y1="25.0977" y2="44.987"/><!--SRC=[Kop9ICrDLKWiBzRDBqhCIq_bAaxCAU6grkPI00AV_FJCF113eKP1ARIuDB4eCry9B1EScfUH29FH0W451OXCj7DYNd9gJc9HR8r2DDY0M2wkMYu0]--></g></svg>