<?xml version="1.0" encoding="us-ascii" standalone="no"?><svg xmlns="http://www.w3.org/2000/svg" xmlns:xlink="http://www.w3.org/1999/xlink" contentStyleType="text/css" height="351px" preserveAspectRatio="none" style="width:686px;height:351px;background:#FFFFFF;" version="1.1" viewBox="0 0 686 351" width="686px" zoomAndPan="magnify"><defs/><g><rect fill="#F1F1F1" height="172.875" rx="5" ry="5" style="stroke:#F1F1F1;stroke-width:1.5;" width="204" x="10" y="44.7188"/><text fill="#000000" font-family="sans-serif" font-size="14" font-weight="bold" lengthAdjust="spacing" textLength="99" x="15" y="61.252">primeiroNome</text><text fill="#000000" font-family="sans-serif" font-size="14" lengthAdjust="spacing" textLength="30" x="168" y="61.252">Joao</text><line style="stroke:#000000;stroke-width:1.0;" x1="163" x2="163" y1="44.7188" y2="66.3281"/><line style="stroke:#000000;stroke-width:1.0;" x1="10" x2="214" y1="66.3281" y2="66.3281"/><text fill="#000000" font-family="sans-serif" font-size="14" font-weight="bold" lengthAdjust="spacing" textLength="80" x="15" y="82.8613">sobrenome</text><text fill="#000000" font-family="sans-serif" font-size="14" lengthAdjust="spacing" textLength="30" x="168" y="82.8613">Silva</text><line style="stroke:#000000;stroke-width:1.0;" x1="163" x2="163" y1="66.3281" y2="87.9375"/><line style="stroke:#000000;stroke-width:1.0;" x1="10" x2="214" y1="87.9375" y2="87.9375"/><text fill="#000000" font-family="sans-serif" font-size="14" font-weight="bold" lengthAdjust="spacing" textLength="61" x="15" y="104.4707">estaVivo</text><text fill="#000000" font-family="sans-serif" font-size="14" lengthAdjust="spacing" textLength="41" x="168" y="104.4707">&#9745; true</text><line style="stroke:#000000;stroke-width:1.0;" x1="163" x2="163" y1="87.9375" y2="109.5469"/><line style="stroke:#000000;stroke-width:1.0;" x1="10" x2="214" y1="109.5469" y2="109.5469"/><text fill="#000000" font-family="sans-serif" font-size="14" font-weight="bold" lengthAdjust="spacing" textLength="39" x="15" y="126.0801">idade</text><text fill="#000000" font-family="sans-serif" font-size="14" lengthAdjust="spacing" textLength="16" x="168" y="126.0801">28</text><line style="stroke:#000000;stroke-width:1.0;" x1="163" x2="163" y1="109.5469" y2="131.1563"/><line style="stroke:#000000;stroke-width:1.0;" x1="10" x2="214" y1="131.1563" y2="131.1563"/><text fill="#000000" font-family="sans-serif" font-size="14" font-weight="bold" lengthAdjust="spacing" textLength="68" x="15" y="147.6895">endereco</text><text fill="#000000" font-family="sans-serif" font-size="14" lengthAdjust="spacing" textLength="12" x="168" y="147.6895">&#160;&#160;&#160;</text><line style="stroke:#000000;stroke-width:1.0;" x1="163" x2="163" y1="131.1563" y2="152.7656"/><line style="stroke:#000000;stroke-width:1.0;" x1="10" x2="214" y1="152.7656" y2="152.7656"/><text fill="#000000" font-family="sans-serif" font-size="14" font-weight="bold" lengthAdjust="spacing" textLength="143" x="15" y="169.2988">numerosDeTelefone</text><text fill="#000000" font-family="sans-serif" font-size="14" lengthAdjust="spacing" textLength="12" x="168" y="169.2988">&#160;&#160;&#160;</text><line style="stroke:#000000;stroke-width:1.0;" x1="163" x2="163" y1="152.7656" y2="174.375"/><line style="stroke:#000000;stroke-width:1.0;" x1="10" x2="214" y1="174.375" y2="174.375"/><text fill="#000000" font-family="sans-serif" font-size="14" font-weight="bold" lengthAdjust="spacing" textLength="39" x="15" y="190.9082">filhos</text><text fill="#000000" font-family="sans-serif" font-size="14" lengthAdjust="spacing" textLength="12" x="168" y="190.9082">&#160;&#160;&#160;</text><line style="stroke:#000000;stroke-width:1.0;" x1="163" x2="163" y1="174.375" y2="195.9844"/><line style="stroke:#000000;stroke-width:1.0;" x1="10" x2="214" y1="195.9844" y2="195.9844"/><text fill="#000000" font-family="sans-serif" font-size="14" font-weight="bold" lengthAdjust="spacing" textLength="57" x="15" y="212.5176">conjuge</text><text fill="#000000" font-family="sans-serif" font-size="14" lengthAdjust="spacing" textLength="12" x="168" y="212.5176">&#160;&#160;&#160;</text><line style="stroke:#000000;stroke-width:1.0;" x1="163" x2="163" y1="195.9844" y2="217.5938"/><rect fill="none" height="172.875" rx="5" ry="5" style="stroke:#000000;stroke-width:1.5;" width="204" x="10" y="44.7188"/><rect fill="#F1F1F1" height="86.4375" rx="5" ry="5" style="stroke:#F1F1F1;stroke-width:1.5;" width="229" x="251" y="10"/><text fill="#000000" font-family="sans-serif" font-size="14" font-weight="bold" lengthAdjust="spacing" textLength="23" x="256" y="26.5332">rua</text><text fill="#000000" font-family="sans-serif" font-size="14" lengthAdjust="spacing" textLength="118" x="357" y="26.5332">Rua dos Andradas</text><line style="stroke:#000000;stroke-width:1.0;" x1="352" x2="352" y1="10" y2="31.6094"/><rect fill="#CCFF02" height="21.6094" rx="2" ry="2" style="stroke:#CCFF02;stroke-width:1.0;" width="227" x="252.5" y="31.6094"/><line style="stroke:#000000;stroke-width:1.0;" x1="251" x2="480" y1="31.6094" y2="31.6094"/><text fill="#000000" font-family="sans-serif" font-size="14" font-weight="bold" lengthAdjust="spacing" textLength="47" x="256" y="48.1426">cidade</text><text fill="#000000" font-family="sans-serif" font-size="14" lengthAdjust="spacing" textLength="91" x="357" y="48.1426">Rio de Janeiro</text><line style="stroke:#000000;stroke-width:1.0;" x1="352" x2="352" y1="31.6094" y2="53.2188"/><line style="stroke:#000000;stroke-width:1.0;" x1="251" x2="480" y1="53.2188" y2="53.2188"/><text fill="#000000" font-family="sans-serif" font-size="14" font-weight="bold" lengthAdjust="spacing" textLength="48" x="256" y="69.752">estado</text><text fill="#000000" font-family="sans-serif" font-size="14" lengthAdjust="spacing" textLength="16" x="357" y="69.752">RJ</text><line style="stroke:#000000;stroke-width:1.0;" x1="352" x2="352" y1="53.2188" y2="74.8281"/><line style="stroke:#000000;stroke-width:1.0;" x1="251" x2="480" y1="74.8281" y2="74.8281"/><text fill="#000000" font-family="sans-serif" font-size="14" font-weight="bold" lengthAdjust="spacing" textLength="91" x="256" y="91.3613">codigoPostal</text><text fill="#000000" font-family="sans-serif" font-size="14" lengthAdjust="spacing" textLength="69" x="357" y="91.3613">20000-000</text><line style="stroke:#000000;stroke-width:1.0;" x1="352" x2="352" y1="74.8281" y2="96.4375"/><rect fill="none" height="86.4375" rx="5" ry="5" style="stroke:#000000;stroke-width:1.5;" width="229" x="251" y="10"/><rect fill="#F1F1F1" height="43.2188" rx="5" ry="5" style="stroke:#F1F1F1;stroke-width:1.5;" width="22" x="354.5" y="114.6094"/><text fill="#000000" font-family="sans-serif" font-size="14" lengthAdjust="spacing" textLength="12" x="359.5" y="131.1426">&#160;&#160;&#160;</text><line style="stroke:#000000;stroke-width:1.0;" x1="354.5" x2="376.5" y1="136.2188" y2="136.2188"/><text fill="#000000" font-family="sans-serif" font-size="14" lengthAdjust="spacing" textLength="12" x="359.5" y="152.752">&#160;&#160;&#160;</text><rect fill="none" height="43.2188" rx="5" ry="5" style="stroke:#000000;stroke-width:1.5;" width="22" x="354.5" y="114.6094"/><rect fill="#F1F1F1" height="43.2188" rx="5" ry="5" style="stroke:#F1F1F1;stroke-width:1.5;" width="155" x="518" y="55.6094"/><text fill="#000000" font-family="sans-serif" font-size="14" font-weight="bold" lengthAdjust="spacing" textLength="27" x="523" y="72.1426">tipo</text><text fill="#000000" font-family="sans-serif" font-size="14" lengthAdjust="spacing" textLength="30" x="587" y="72.1426">casa</text><line style="stroke:#000000;stroke-width:1.0;" x1="582" x2="582" y1="55.6094" y2="77.2188"/><line style="stroke:#000000;stroke-width:1.0;" x1="518" x2="673" y1="77.2188" y2="77.2188"/><text fill="#000000" font-family="sans-serif" font-size="14" font-weight="bold" lengthAdjust="spacing" textLength="54" x="523" y="93.752">numero</text><text fill="#000000" font-family="sans-serif" font-size="14" lengthAdjust="spacing" textLength="81" x="587" y="93.752">21 555-1234</text><line style="stroke:#000000;stroke-width:1.0;" x1="582" x2="582" y1="77.2188" y2="98.8281"/><rect fill="none" height="43.2188" rx="5" ry="5" style="stroke:#000000;stroke-width:1.5;" width="155" x="518" y="55.6094"/><rect fill="#F1F1F1" height="43.2188" rx="5" ry="5" style="stroke:#F1F1F1;stroke-width:1.5;" width="155" x="518" y="116.6094"/><text fill="#000000" font-family="sans-serif" font-size="14" font-weight="bold" lengthAdjust="spacing" textLength="27" x="523" y="133.1426">tipo</text><text fill="#000000" font-family="sans-serif" font-size="14" lengthAdjust="spacing" textLength="58" x="587" y="133.1426">escritorio</text><line style="stroke:#000000;stroke-width:1.0;" x1="582" x2="582" y1="116.6094" y2="138.2188"/><line style="stroke:#000000;stroke-width:1.0;" x1="518" x2="673" y1="138.2188" y2="138.2188"/><text fill="#000000" font-family="sans-serif" font-size="14" font-weight="bold" lengthAdjust="spacing" textLength="54" x="523" y="154.752">numero</text><text fill="#000000" font-family="sans-serif" font-size="14" lengthAdjust="spacing" textLength="81" x="587" y="154.752">21 555-4567</text><line style="stroke:#000000;stroke-width:1.0;" x1="582" x2="582" y1="138.2188" y2="159.8281"/><rect fill="none" height="43.2188" rx="5" ry="5" style="stroke:#000000;stroke-width:1.5;" width="155" x="518" y="116.6094"/><rect fill="#F1F1F1" height="43.2188" rx="5" ry="5" style="stroke:#F1F1F1;stroke-width:1.5;" width="22" x="354.5" y="191.6094"/><text fill="#000000" font-family="sans-serif" font-size="14" lengthAdjust="spacing" textLength="12" x="359.5" y="208.1426">&#160;&#160;&#160;</text><line style="stroke:#000000;stroke-width:1.0;" x1="354.5" x2="376.5" y1="213.2188" y2="213.2188"/><text fill="#000000" font-family="sans-serif" font-size="14" lengthAdjust="spacing" textLength="12" x="359.5" y="229.752">&#160;&#160;&#160;</text><rect fill="none" height="43.2188" rx="5" ry="5" style="stroke:#000000;stroke-width:1.5;" width="22" x="354.5" y="191.6094"/><rect fill="#F1F1F1" height="64.8281" rx="5" ry="5" style="stroke:#F1F1F1;stroke-width:1.5;" width="149" x="521" y="177.7188"/><text fill="#000000" font-family="sans-serif" font-size="14" font-weight="bold" lengthAdjust="spacing" textLength="99" x="526" y="194.252">primeiroNome</text><text fill="#000000" font-family="sans-serif" font-size="14" lengthAdjust="spacing" textLength="25" x="635" y="194.252">Ana</text><line style="stroke:#000000;stroke-width:1.0;" x1="630" x2="630" y1="177.7188" y2="199.3281"/><line style="stroke:#000000;stroke-width:1.0;" x1="521" x2="670" y1="199.3281" y2="199.3281"/><text fill="#000000" font-family="sans-serif" font-size="14" font-weight="bold" lengthAdjust="spacing" textLength="80" x="526" y="215.8613">sobrenome</text><text fill="#000000" font-family="sans-serif" font-size="14" lengthAdjust="spacing" textLength="30" x="635" y="215.8613">Silva</text><line style="stroke:#000000;stroke-width:1.0;" x1="630" x2="630" y1="199.3281" y2="220.9375"/><line style="stroke:#000000;stroke-width:1.0;" x1="521" x2="670" y1="220.9375" y2="220.9375"/><text fill="#000000" font-family="sans-serif" font-size="14" font-weight="bold" lengthAdjust="spacing" textLength="39" x="526" y="237.4707">idade</text><text fill="#000000" font-family="sans-serif" font-size="14" lengthAdjust="spacing" textLength="8" x="635" y="237.4707">5</text><line style="stroke:#000000;stroke-width:1.0;" x1="630" x2="630" y1="220.9375" y2="242.5469"/><rect fill="none" height="64.8281" rx="5" ry="5" style="stroke:#000000;stroke-width:1.5;" width="149" x="521" y="177.7188"/><rect fill="#F1F1F1" height="64.8281" rx="5" ry="5" style="stroke:#F1F1F1;stroke-width:1.5;" width="157" x="517" y="260.7188"/><text fill="#000000" font-family="sans-serif" font-size="14" font-weight="bold" lengthAdjust="spacing" textLength="99" x="522" y="277.252">primeiroNome</text><text fill="#000000" font-family="sans-serif" font-size="14" lengthAdjust="spacing" textLength="38" x="631" y="277.252">Pedro</text><line style="stroke:#000000;stroke-width:1.0;" x1="626" x2="626" y1="260.7188" y2="282.3281"/><line style="stroke:#000000;stroke-width:1.0;" x1="517" x2="674" y1="282.3281" y2="282.3281"/><text fill="#000000" font-family="sans-serif" font-size="14" font-weight="bold" lengthAdjust="spacing" textLength="80" x="522" y="298.8613">sobrenome</text><text fill="#000000" font-family="sans-serif" font-size="14" lengthAdjust="spacing" textLength="30" x="631" y="298.8613">Silva</text><line style="stroke:#000000;stroke-width:1.0;" x1="626" x2="626" y1="282.3281" y2="303.9375"/><line style="stroke:#000000;stroke-width:1.0;" x1="517" x2="674" y1="303.9375" y2="303.9375"/><text fill="#000000" font-family="sans-serif" font-size="14" font-weight="bold" lengthAdjust="spacing" textLength="39" x="522" y="320.4707">idade</text><text fill="#000000" font-family="sans-serif" font-size="14" lengthAdjust="spacing" textLength="8" x="631" y="320.4707">3</text><line style="stroke:#000000;stroke-width:1.0;" x1="626" x2="626" y1="303.9375" y2="325.5469"/><rect fill="none" height="64.8281" rx="5" ry="5" style="stroke:#000000;stroke-width:1.5;" width="157" x="517" y="260.7188"/><rect fill="#F1F1F1" height="86.4375" rx="5" ry="5" style="stroke:#F1F1F1;stroke-width:1.5;" width="160" x="285.5" y="253"/><text fill="#000000" font-family="sans-serif" font-size="14" font-weight="bold" lengthAdjust="spacing" textLength="99" x="290.5" y="269.5332">primeiroNome</text><text fill="#000000" font-family="sans-serif" font-size="14" lengthAdjust="spacing" textLength="35" x="399.5" y="269.5332">Maria</text><line style="stroke:#000000;stroke-width:1.0;" x1="394.5" x2="394.5" y1="253" y2="274.6094"/><line style="stroke:#000000;stroke-width:1.0;" x1="285.5" x2="445.5" y1="274.6094" y2="274.6094"/><text fill="#000000" font-family="sans-serif" font-size="14" font-weight="bold" lengthAdjust="spacing" textLength="80" x="290.5" y="291.1426">sobrenome</text><text fill="#000000" font-family="sans-serif" font-size="14" lengthAdjust="spacing" textLength="30" x="399.5" y="291.1426">Silva</text><line style="stroke:#000000;stroke-width:1.0;" x1="394.5" x2="394.5" y1="274.6094" y2="296.2188"/><line style="stroke:#000000;stroke-width:1.0;" x1="285.5" x2="445.5" y1="296.2188" y2="296.2188"/><text fill="#000000" font-family="sans-serif" font-size="14" font-weight="bold" lengthAdjust="spacing" textLength="61" x="290.5" y="312.752">estaVivo</text><text fill="#000000" font-family="sans-serif" font-size="14" lengthAdjust="spacing" textLength="41" x="399.5" y="312.752">&#9745; true</text><line style="stroke:#000000;stroke-width:1.0;" x1="394.5" x2="394.5" y1="296.2188" y2="317.8281"/><line style="stroke:#000000;stroke-width:1.0;" x1="285.5" x2="445.5" y1="317.8281" y2="317.8281"/><text fill="#000000" font-family="sans-serif" font-size="14" font-weight="bold" lengthAdjust="spacing" textLength="39" x="290.5" y="334.3613">idade</text><text fill="#000000" font-family="sans-serif" font-size="14" lengthAdjust="spacing" textLength="16" x="399.5" y="334.3613">26</text><line style="stroke:#000000;stroke-width:1.0;" x1="394.5" x2="394.5" y1="317.8281" y2="339.4375"/><rect fill="none" height="86.4375" rx="5" ry="5" style="stroke:#000000;stroke-width:1.5;" width="160" x="285.5" y="253"/><path d="M202,142.2188 L215,142.2188 C237.9438,142.2188 232.2405,118.4287 251,105.2188 C253.2677,103.6219 255.5924,102.0551 257.9626,100.5193 " fill="none" style="stroke:#000000;stroke-width:1.0;stroke-dasharray:3.0,3.0;"/><path d="M259.5594,103.0685 L259.8744,99.3217 L256.3657,97.9702 L264.3354,96.5272 L259.5594,103.0685 " fill="#000000" style="stroke:#000000;stroke-width:1.0;"/><ellipse cx="202" cy="142.2188" fill="#000000" rx="3" ry="3" style="stroke:#000000;stroke-width:1.0;"/><path d="M365,125.2188 L378,125.2188 C427.6844,125.2188 482.2895,113.0742 524.2944,101.0026 " fill="none" style="stroke:#000000;stroke-width:1.0;stroke-dasharray:3.0,3.0;"/><path d="M525.1627,103.973 L526.5222,100.3513 L523.426,98.0322 L531.7204,98.8316 L525.1627,103.973 " fill="#000000" style="stroke:#000000;stroke-width:1.0;"/><ellipse cx="365" cy="125.2188" fill="#000000" rx="3" ry="3" style="stroke:#000000;stroke-width:1.0;"/><path d="M365,147.2188 L378,147.2188 C421.836,147.2188 470.6103,145.3626 510.7972,143.3363 " fill="none" style="stroke:#000000;stroke-width:1.0;stroke-dasharray:3.0,3.0;"/><path d="M510.9546,146.4 L513.095,143.2182 L510.6398,140.2725 L518.4566,142.9428 L510.9546,146.4 " fill="#000000" style="stroke:#000000;stroke-width:1.0;"/><ellipse cx="365" cy="147.2188" fill="#000000" rx="3" ry="3" style="stroke:#000000;stroke-width:1.0;"/><path d="M202,163.2188 L215,163.2188 C263.6475,163.2188 319.7859,149.293 347.5649,141.4436 " fill="none" style="stroke:#000000;stroke-width:1.0;stroke-dasharray:3.0,3.0;"/><path d="M348.4159,144.3888 L349.7737,140.8053 L346.7138,138.4985 L354.9277,139.316 L348.4159,144.3888 " fill="#000000" style="stroke:#000000;stroke-width:1.0;"/><ellipse cx="202" cy="163.2188" fill="#000000" rx="3" ry="3" style="stroke:#000000;stroke-width:1.0;"/><path d="M365,202.2188 L378,202.2188 C422.8952,202.2188 472.9796,203.9499 513.7101,205.8017 " fill="none" style="stroke:#000000;stroke-width:1.0;stroke-dasharray:3.0,3.0;"/><path d="M513.5714,208.7989 L515.958,205.9057 L513.8488,202.8044 L521.2032,206.1484 L513.5714,208.7989 " fill="#000000" style="stroke:#000000;stroke-width:1.0;"/><ellipse cx="365" cy="202.2188" fill="#000000" rx="3" ry="3" style="stroke:#000000;stroke-width:1.0;"/><path d="M365,224.2188 L378,224.2188 C427.5157,224.2188 480.5253,240.7365 521.7563,257.6087 " fill="none" style="stroke:#000000;stroke-width:1.0;stroke-dasharray:3.0,3.0;"/><path d="M520.5848,260.4225 L523.8666,258.4873 L522.9277,254.7949 L528.7908,260.5373 L520.5848,260.4225 " fill="#000000" style="stroke:#000000;stroke-width:1.0;"/><ellipse cx="365" cy="224.2188" fill="#000000" rx="3" ry="3" style="stroke:#000000;stroke-width:1.0;"/><path d="M202,185.2188 L215,185.2188 C263.705,185.2188 319.8183,199.6603 347.5786,207.8004 " fill="none" style="stroke:#000000;stroke-width:1.0;stroke-dasharray:3.0,3.0;"/><path d="M346.696,210.7434 L349.7859,208.4623 L348.4611,204.8573 L354.9362,210.0068 L346.696,210.7434 " fill="#000000" style="stroke:#000000;stroke-width:1.0;"/><ellipse cx="202" cy="185.2188" fill="#000000" rx="3" ry="3" style="stroke:#000000;stroke-width:1.0;"/><path d="M202,207.2188 L215,207.2188 C237.9438,207.2188 232.2405,231.0088 251,244.2188 C259.743,250.3753 269.3316,256.0849 279.1188,261.292 " fill="none" style="stroke:#000000;stroke-width:1.0;stroke-dasharray:3.0,3.0;"/><path d="M277.7092,264.0118 L281.1586,262.3492 L280.5284,258.5722 L285.9182,264.816 L277.7092,264.0118 " fill="#000000" style="stroke:#000000;stroke-width:1.0;"/><ellipse cx="202" cy="207.2188" fill="#000000" rx="3" ry="3" style="stroke:#000000;stroke-width:1.0;"/><!--SRC=[bLDDZzem4BtxLupI2qZBbWH2gvpsYxP2G15GBbKF9Z71g-29R2VggkA_T-mix3PbApMIBMNUcpTlxF6DiLpRHuCAnZ_5eImGCW6JrTSvUxUN-RwWPI4mkDL2uK44y1w2Kik3a1hdBl07JwXCQ96YfwKourcBKEvHYNbrs0fjFAdlT-KZ0Vl5e2MVG311Zi6LGrviK7WbYvetSK5TR6ID5BQw4ZxM54yW-jXGJiuIS4KeeYlkP9OLXmmDtAfCyumRhmXdzuuXcqFXohawuQvcXXwVd7CmapakaA328L6VlXwjWF2Zzq6T2etcGQn58NPq6CJxxhCRMqInilIwAJVyMVcSw5L3YEEu5qQ3OU3HuzLb0M5IBIrgYV-G6SQZ3yyojF_m9dUosAFvsrdxPcxLAuDlN8x7JcSPN_JRbbs8JEF_2GzQ7QIe7gjSlDnskyQCQtdIURl2fSbwFLiZTw_io6velDmZOcnHS6M_pQPGquHBUbRXTTIFXjU3pdfVmIUnXJ26S9GC-qa_Xhlb6XpSPPtFYsaTWS5Afm8oQQoMsygIGfTDUCrXMIbBBIJW_ZhhMHTMurCGnggctjH1ACiccrb3WYzeLoLQJnuDUtVImafeCWQR6NiGEruLbbBTrAeyWVioZEA8JRdAAvvJfTAoUwGA-YaXfxy1]--></g></svg>